<svg width="1440" height="1024" viewBox="0 0 1440 1024" fill="none" xmlns="http://www.w3.org/2000/svg">
<g clip-path="url(#clip0_1_2)">
<rect width="1440" height="1024" fill="white"/>
<path d="M1633.17 -28H-47V1122C-20.9062 1035.06 550.58 1044 2169 1122V445.098V402.756C1615.49 460.198 1458.11 392.145 1633.17 -28Z" fill="url(#paint0_linear_1_2)" stroke="url(#paint1_linear_1_2)"/>
<g opacity="0.1">
<path d="M1135.42 31H1271.66C1276.28 31.0052 1280.71 32.8403 1283.97 36.1028C1287.24 39.3653 1289.08 43.7886 1289.08 48.4025V122.849C1289.08 127.463 1287.24 131.886 1283.97 135.149C1280.71 138.411 1276.28 140.246 1271.66 140.251H1135.42C1130.8 140.246 1126.37 138.411 1123.11 135.149C1119.84 131.886 1118.01 127.463 1118 122.849V48.4025C1118.01 43.7886 1119.84 39.3653 1123.11 36.1028C1126.37 32.8403 1130.8 31.0052 1135.42 31Z" fill="#F2F2F2"/>
<path d="M1135.42 36.0098H1271.66C1274.95 36.0135 1278.1 37.3203 1280.43 39.6436C1282.76 41.9669 1284.06 45.1169 1284.07 48.4025V122.849C1284.06 126.135 1282.76 129.285 1280.43 131.608C1278.1 133.931 1274.95 135.238 1271.66 135.242H1135.42C1132.13 135.238 1128.98 133.931 1126.65 131.608C1124.33 129.284 1123.02 126.135 1123.02 122.849V48.4025C1123.02 45.1169 1124.33 41.9669 1126.65 39.6436C1128.98 37.3204 1132.13 36.0135 1135.42 36.0098Z" fill="white"/>
<path d="M1136.75 166.906C1136.34 166.905 1135.93 166.822 1135.55 166.664C1134.99 166.437 1134.5 166.044 1134.17 165.537C1133.83 165.031 1133.65 164.434 1133.66 163.824V138.089L1168.01 136.934L1138.91 165.998C1138.63 166.284 1138.29 166.512 1137.92 166.668C1137.55 166.824 1137.15 166.904 1136.75 166.906Z" fill="#F2F2F2"/>
<path d="M1254.6 54.5273H1152.15C1148.05 54.5273 1144.73 57.8485 1144.73 61.9453V61.9453C1144.73 66.0421 1148.05 69.3633 1152.15 69.3633H1254.6C1258.7 69.3633 1262.02 66.0421 1262.02 61.9453C1262.02 57.8485 1258.7 54.5273 1254.6 54.5273Z" fill="#F2F2F2"/>
<path d="M1254.76 78.2077H1152.32C1148.22 78.2077 1144.89 81.5289 1144.89 85.6257V85.6257C1144.89 89.7225 1148.22 93.0436 1152.32 93.0436H1254.76C1258.87 93.0436 1262.19 89.7225 1262.19 85.6257C1262.19 81.5289 1258.87 78.2077 1254.76 78.2077Z" fill="#F2F2F2"/>
<path d="M1254.93 101.888H1152.49C1148.38 101.888 1145.06 105.209 1145.06 109.306V109.306C1145.06 113.403 1148.38 116.724 1152.49 116.724H1254.93C1259.03 116.724 1262.36 113.403 1262.36 109.306C1262.36 105.209 1259.03 101.888 1254.93 101.888Z" fill="#F2F2F2"/>
<path d="M1350.55 68.9689H1214.32C1209.7 68.9741 1205.27 70.8093 1202 74.0717C1198.73 77.3342 1196.9 81.7576 1196.89 86.3714V160.818C1196.9 165.432 1198.73 169.855 1202 173.118C1205.27 176.38 1209.7 178.215 1214.32 178.22H1350.55C1355.17 178.215 1359.6 176.38 1362.87 173.118C1366.13 169.855 1367.97 165.432 1367.98 160.818V86.3714C1367.97 81.7576 1366.13 77.3342 1362.87 74.0717C1359.6 70.8093 1355.17 68.9741 1350.55 68.9689Z" fill="#E6E6E6"/>
<path d="M1350.55 73.9787H1214.32C1211.03 73.9824 1207.87 75.2892 1205.55 77.6125C1203.22 79.9358 1201.91 83.0858 1201.91 86.3714V160.818C1201.91 164.103 1203.22 167.253 1205.55 169.577C1207.87 171.9 1211.03 173.207 1214.32 173.21H1350.55C1353.84 173.207 1357 171.9 1359.32 169.577C1361.65 167.253 1362.96 164.103 1362.96 160.818V86.3714C1362.96 83.0858 1361.65 79.9358 1359.32 77.6125C1357 75.2893 1353.84 73.9824 1350.55 73.9787Z" fill="white"/>
<path d="M1340.19 203.967L1311.09 174.903L1345.44 176.058V201.793C1345.45 202.403 1345.27 203 1344.93 203.506C1344.59 204.013 1344.11 204.406 1343.54 204.633C1343.16 204.791 1342.76 204.873 1342.35 204.875C1341.94 204.873 1341.55 204.792 1341.18 204.637C1340.81 204.481 1340.47 204.253 1340.19 203.967Z" fill="#E6E6E6"/>
<path d="M1252.39 132.996C1257.58 132.996 1261.8 128.787 1261.8 123.595C1261.8 118.402 1257.58 114.193 1252.39 114.193C1247.19 114.193 1242.97 118.402 1242.97 123.595C1242.97 128.787 1247.19 132.996 1252.39 132.996Z" fill="#6C63FF"/>
<path d="M1282.43 132.996C1287.63 132.996 1291.85 128.787 1291.85 123.595C1291.85 118.402 1287.63 114.193 1282.43 114.193C1277.24 114.193 1273.02 118.402 1273.02 123.595C1273.02 128.787 1277.24 132.996 1282.43 132.996Z" fill="#6C63FF"/>
<path d="M1312.48 132.996C1317.68 132.996 1321.9 128.787 1321.9 123.595C1321.9 118.402 1317.68 114.193 1312.48 114.193C1307.28 114.193 1303.07 118.402 1303.07 123.595C1303.07 128.787 1307.28 132.996 1312.48 132.996Z" fill="#6C63FF"/>
</g>
<circle cx="-70" cy="405" r="125" fill="url(#paint2_linear_1_2)" fill-opacity="0.3"/>
<g opacity="0.3">
<path d="M196 1079C196 1148.04 140.036 1204 71 1204C1.96441 1204 -54 1148.04 -54 1079C-54 1009.96 1.96441 954 71 954C140.036 954 196 1009.96 196 1079Z" fill="#D7E7E9"/>
<path d="M196 1079C196 1148.04 140.036 1204 71 1204C1.96441 1204 -54 1148.04 -54 1079C-54 1009.96 1.96441 954 71 954C140.036 954 196 1009.96 196 1079Z" fill="#D7E7E9"/>
<path d="M387 1139C387 1208.04 331.036 1264 262 1264C192.964 1264 137 1208.04 137 1139C137 1069.96 192.964 1014 262 1014C331.036 1014 387 1069.96 387 1139Z" fill="#D7E7E9"/>
<path d="M387 1139C387 1208.04 331.036 1264 262 1264C192.964 1264 137 1208.04 137 1139C137 1069.96 192.964 1014 262 1014C331.036 1014 387 1069.96 387 1139Z" fill="#D7E7E9"/>
<path d="M537 1079C537 1148.04 481.036 1204 412 1204C342.964 1204 287 1148.04 287 1079C287 1009.96 342.964 954 412 954C481.036 954 537 1009.96 537 1079Z" fill="#D7E7E9"/>
<path d="M537 1079C537 1148.04 481.036 1204 412 1204C342.964 1204 287 1148.04 287 1079C287 1009.96 342.964 954 412 954C481.036 954 537 1009.96 537 1079Z" fill="#D7E7E9"/>
<path d="M1542 1118C1542 1187.04 1486.04 1243 1417 1243C1347.96 1243 1292 1187.04 1292 1118C1292 1048.96 1347.96 993 1417 993C1486.04 993 1542 1048.96 1542 1118Z" fill="#D7E7E9"/>
<path d="M1542 1118C1542 1187.04 1486.04 1243 1417 1243C1347.96 1243 1292 1187.04 1292 1118C1292 1048.96 1347.96 993 1417 993C1486.04 993 1542 1048.96 1542 1118Z" fill="#D7E7E9"/>
<path d="M1361 1079C1361 1148.04 1305.04 1204 1236 1204C1166.96 1204 1111 1148.04 1111 1079C1111 1009.96 1166.96 954 1236 954C1305.04 954 1361 1009.96 1361 1079Z" fill="#D7E7E9"/>
<path d="M1361 1079C1361 1148.04 1305.04 1204 1236 1204C1166.96 1204 1111 1148.04 1111 1079C1111 1009.96 1166.96 954 1236 954C1305.04 954 1361 1009.96 1361 1079Z" fill="#D7E7E9"/>
<path d="M1178 1079C1178 1148.04 1122.04 1204 1053 1204C983.964 1204 928 1148.04 928 1079C928 1009.96 983.964 954 1053 954C1122.04 954 1178 1009.96 1178 1079Z" fill="#D7E7E9"/>
<path d="M1178 1079C1178 1148.04 1122.04 1204 1053 1204C983.964 1204 928 1148.04 928 1079C928 1009.96 983.964 954 1053 954C1122.04 954 1178 1009.96 1178 1079Z" fill="#D7E7E9"/>
<path d="M1053 1139C1053 1208.04 997.036 1264 928 1264C858.964 1264 803 1208.04 803 1139C803 1069.96 858.964 1014 928 1014C997.036 1014 1053 1069.96 1053 1139Z" fill="#D7E7E9"/>
<path d="M1053 1139C1053 1208.04 997.036 1264 928 1264C858.964 1264 803 1208.04 803 1139C803 1069.96 858.964 1014 928 1014C997.036 1014 1053 1069.96 1053 1139Z" fill="#D7E7E9"/>
<path d="M901 1079C901 1148.04 845.036 1204 776 1204C706.964 1204 651 1148.04 651 1079C651 1009.96 706.964 954 776 954C845.036 954 901 1009.96 901 1079Z" fill="#D7E7E9"/>
<path d="M901 1079C901 1148.04 845.036 1204 776 1204C706.964 1204 651 1148.04 651 1079C651 1009.96 706.964 954 776 954C845.036 954 901 1009.96 901 1079Z" fill="#D7E7E9"/>
<path d="M720 1079C720 1148.04 664.036 1204 595 1204C525.964 1204 470 1148.04 470 1079C470 1009.96 525.964 954 595 954C664.036 954 720 1009.96 720 1079Z" fill="#D7E7E9"/>
<path d="M720 1079C720 1148.04 664.036 1204 595 1204C525.964 1204 470 1148.04 470 1079C470 1009.96 525.964 954 595 954C664.036 954 720 1009.96 720 1079Z" fill="#D7E7E9"/>
</g>
</g>
<defs>
<linearGradient id="paint0_linear_1_2" x1="1407.4" y1="484.052" x2="1158.96" y2="1161.44" gradientUnits="userSpaceOnUse">
<stop stop-color="#45A7BD"/>
<stop offset="1" stop-color="#C4C4C4"/>
</linearGradient>
<linearGradient id="paint1_linear_1_2" x1="1061" y1="-28" x2="835.87" y2="1157.63" gradientUnits="userSpaceOnUse">
<stop stop-color="#CACBDE"/>
<stop offset="1" stop-color="#2F3155" stop-opacity="0"/>
</linearGradient>
<linearGradient id="paint2_linear_1_2" x1="16.0294" y1="366.029" x2="-86.1765" y2="493.971" gradientUnits="userSpaceOnUse">
<stop stop-color="#A3EDF8"/>
<stop offset="1" stop-color="#7DAEB5" stop-opacity="0"/>
</linearGradient>
<clipPath id="clip0_1_2">
<rect width="1440" height="1024" fill="white"/>
</clipPath>
</defs>
</svg>
