<svg width="1440" height="1024" viewBox="0 0 1440 1024" fill="none" xmlns="http://www.w3.org/2000/svg">
<g clip-path="url(#clip0_1_2)">
<rect width="1440" height="1024" fill="white"/>
<path d="M1105.46 -28H-47V1122C-29.1018 1035.06 362.892 1044 1473 1122V445.098V402.756C1093.34 460.198 985.385 392.145 1105.46 -28Z" fill="url(#paint0_linear_1_2)" stroke="url(#paint1_linear_1_2)"/>
<circle cx="55" cy="366" r="125" fill="url(#paint2_linear_1_2)"/>
<path d="M180 1001C180 1070.04 124.036 1126 55 1126C-14.0356 1126 -70 1070.04 -70 1001C-70 931.964 -14.0356 876 55 876C124.036 876 180 931.964 180 1001Z" fill="#D7E7E9"/>
<path d="M180 1001C180 1070.04 124.036 1126 55 1126C-14.0356 1126 -70 1070.04 -70 1001C-70 931.964 -14.0356 876 55 876C124.036 876 180 931.964 180 1001Z" fill="#D7E7E9"/>
<path d="M371 1061C371 1130.04 315.036 1186 246 1186C176.964 1186 121 1130.04 121 1061C121 991.964 176.964 936 246 936C315.036 936 371 991.964 371 1061Z" fill="#D7E7E9"/>
<path d="M371 1061C371 1130.04 315.036 1186 246 1186C176.964 1186 121 1130.04 121 1061C121 991.964 176.964 936 246 936C315.036 936 371 991.964 371 1061Z" fill="#D7E7E9"/>
<path d="M521 1001C521 1070.04 465.036 1126 396 1126C326.964 1126 271 1070.04 271 1001C271 931.964 326.964 876 396 876C465.036 876 521 931.964 521 1001Z" fill="#D7E7E9"/>
<path d="M521 1001C521 1070.04 465.036 1126 396 1126C326.964 1126 271 1070.04 271 1001C271 931.964 326.964 876 396 876C465.036 876 521 931.964 521 1001Z" fill="#D7E7E9"/>
<path d="M1526 1040C1526 1109.04 1470.04 1165 1401 1165C1331.96 1165 1276 1109.04 1276 1040C1276 970.964 1331.96 915 1401 915C1470.04 915 1526 970.964 1526 1040Z" fill="#D7E7E9"/>
<path d="M1526 1040C1526 1109.04 1470.04 1165 1401 1165C1331.96 1165 1276 1109.04 1276 1040C1276 970.964 1331.96 915 1401 915C1470.04 915 1526 970.964 1526 1040Z" fill="#D7E7E9"/>
<path d="M1345 1001C1345 1070.04 1289.04 1126 1220 1126C1150.96 1126 1095 1070.04 1095 1001C1095 931.964 1150.96 876 1220 876C1289.04 876 1345 931.964 1345 1001Z" fill="#D7E7E9"/>
<path d="M1345 1001C1345 1070.04 1289.04 1126 1220 1126C1150.96 1126 1095 1070.04 1095 1001C1095 931.964 1150.96 876 1220 876C1289.04 876 1345 931.964 1345 1001Z" fill="#D7E7E9"/>
<path d="M1162 1001C1162 1070.04 1106.04 1126 1037 1126C967.964 1126 912 1070.04 912 1001C912 931.964 967.964 876 1037 876C1106.04 876 1162 931.964 1162 1001Z" fill="#D7E7E9"/>
<path d="M1162 1001C1162 1070.04 1106.04 1126 1037 1126C967.964 1126 912 1070.04 912 1001C912 931.964 967.964 876 1037 876C1106.04 876 1162 931.964 1162 1001Z" fill="#D7E7E9"/>
<path d="M1037 1061C1037 1130.04 981.036 1186 912 1186C842.964 1186 787 1130.04 787 1061C787 991.964 842.964 936 912 936C981.036 936 1037 991.964 1037 1061Z" fill="#D7E7E9"/>
<path d="M1037 1061C1037 1130.04 981.036 1186 912 1186C842.964 1186 787 1130.04 787 1061C787 991.964 842.964 936 912 936C981.036 936 1037 991.964 1037 1061Z" fill="#D7E7E9"/>
<path d="M885 1001C885 1070.04 829.036 1126 760 1126C690.964 1126 635 1070.04 635 1001C635 931.964 690.964 876 760 876C829.036 876 885 931.964 885 1001Z" fill="#D7E7E9"/>
<path d="M885 1001C885 1070.04 829.036 1126 760 1126C690.964 1126 635 1070.04 635 1001C635 931.964 690.964 876 760 876C829.036 876 885 931.964 885 1001Z" fill="#D7E7E9"/>
<path d="M704 1001C704 1070.04 648.036 1126 579 1126C509.964 1126 454 1070.04 454 1001C454 931.964 509.964 876 579 876C648.036 876 704 931.964 704 1001Z" fill="#D7E7E9"/>
<path d="M704 1001C704 1070.04 648.036 1126 579 1126C509.964 1126 454 1070.04 454 1001C454 931.964 509.964 876 579 876C648.036 876 704 931.964 704 1001Z" fill="#D7E7E9"/>
<g clip-path="url(#clip1_1_2)">
<path d="M1318.2 485.925H988.445V132.405C988.445 57.1909 1047.01 -4 1118.99 -4H1187.66C1259.64 -4 1318.2 57.1909 1318.2 132.405V485.925Z" fill="#F2F2F2"/>
<path d="M1249.54 485.925H988.445V132.405C988.373 103.585 997.107 75.4928 1013.38 52.2193C1013.98 51.3652 1014.57 50.5222 1015.19 49.6884C1023.06 38.9044 1032.42 29.4071 1042.98 21.51C1043.57 21.0569 1044.17 20.6117 1044.78 20.1664C1053.61 13.7827 1063.16 8.56413 1073.21 4.62949C1073.81 4.39303 1074.42 4.15611 1075.02 3.92886C1084.12 0.538162 1093.54 -1.78445 1103.13 -2.99609C1103.72 -3.08091 1104.33 -3.14728 1104.94 -3.21365C1114.28 -4.25719 1123.7 -4.25719 1133.05 -3.21365C1133.65 -3.14728 1134.26 -3.08092 1134.86 -2.99519C1144.45 -1.78346 1153.87 0.538866 1162.96 3.92891C1163.57 4.15615 1164.18 4.39306 1164.78 4.62998C1174.71 8.51498 1184.15 13.6557 1192.88 19.9374C1193.49 20.373 1194.09 20.8182 1194.69 21.2635C1200.61 25.6744 1206.16 30.5885 1211.3 35.9556C1215.42 40.2605 1219.26 44.8493 1222.8 49.6912C1223.41 50.5222 1224.01 51.3653 1224.61 52.218C1240.88 75.4917 1249.61 103.584 1249.54 132.405V485.925Z" fill="#CCCCCC"/>
<path d="M1228.31 327.809C1236.29 327.809 1242.77 321.047 1242.77 312.705C1242.77 304.364 1236.29 297.601 1228.31 297.601C1220.33 297.601 1213.86 304.364 1213.86 312.705C1213.86 321.047 1220.33 327.809 1228.31 327.809Z" fill="#6C63FF"/>
<path d="M1291.19 475.337H1280.11L1274.84 430.698L1291.19 430.699L1291.19 475.337Z" fill="#FFB8B8"/>
<path d="M1272.2 472.03H1293.56V486.083H1258.75C1258.75 484.237 1259.1 482.41 1259.78 480.705C1260.45 479 1261.44 477.451 1262.69 476.146C1263.94 474.841 1265.42 473.806 1267.05 473.099C1268.69 472.393 1270.44 472.03 1272.2 472.03Z" fill="#2F2E41"/>
<path d="M1346.3 475.337H1335.22L1329.95 430.698L1346.3 430.699L1346.3 475.337Z" fill="#FFB8B8"/>
<path d="M1327.31 472.03H1348.67V486.083H1313.86C1313.86 484.237 1314.21 482.41 1314.89 480.705C1315.56 479 1316.55 477.451 1317.8 476.146C1319.05 474.841 1320.53 473.806 1322.16 473.099C1323.8 472.393 1325.55 472.03 1327.31 472.03Z" fill="#2F2E41"/>
<path d="M1235.63 315.697C1234.83 314.47 1234.3 313.076 1234.07 311.612C1233.85 310.149 1233.93 308.651 1234.32 307.225C1234.71 305.799 1235.39 304.48 1236.32 303.36C1237.25 302.239 1238.41 301.346 1239.7 300.742L1277.35 192.31L1295.88 202.874L1252.89 306.496C1253.72 308.837 1253.69 311.414 1252.82 313.739C1251.95 316.064 1250.3 317.974 1248.17 319.108C1246.04 320.243 1243.59 320.522 1241.28 319.893C1238.97 319.264 1236.95 317.771 1235.63 315.697Z" fill="#FFB8B8"/>
<path d="M1340.64 336.072C1339.41 335.335 1338.35 334.324 1337.53 333.112C1336.72 331.9 1336.16 330.515 1335.91 329.055C1335.67 327.596 1335.73 326.097 1336.09 324.664C1336.46 323.232 1337.12 321.9 1338.03 320.764L1326.36 206.061L1347.45 207.068L1352.3 319.893C1354.02 321.618 1355.08 323.945 1355.28 326.433C1355.47 328.921 1354.78 331.397 1353.35 333.391C1351.91 335.385 1349.82 336.76 1347.48 337.254C1345.14 337.748 1342.71 337.327 1340.64 336.072Z" fill="#FFB8B8"/>
<path d="M1307.01 172.225C1319.26 172.225 1329.2 161.845 1329.2 149.04C1329.2 136.236 1319.26 125.855 1307.01 125.855C1294.75 125.855 1284.82 136.236 1284.82 149.04C1284.82 161.845 1294.75 172.225 1307.01 172.225Z" fill="#FFB8B8"/>
<path d="M1340.5 309.985H1273.6L1273.68 309.441C1273.8 308.628 1285.61 227.845 1276.9 201.416C1276.03 198.819 1276.1 195.976 1277.12 193.434C1278.13 190.893 1280.01 188.832 1282.38 187.65H1282.38C1294.83 181.527 1318.71 173.989 1338.87 192.284C1341.83 195.02 1344.15 198.44 1345.63 202.273C1347.12 206.106 1347.73 210.247 1347.41 214.369L1340.5 309.985Z" fill="#6C63FF"/>
<path d="M1286.45 239.783L1256.33 233.399L1270.45 198.443C1271.3 195.058 1273.39 192.161 1276.28 190.387C1279.16 188.614 1282.61 188.109 1285.85 188.983C1289.09 189.858 1291.87 192.041 1293.57 195.052C1295.28 198.064 1295.77 201.659 1294.94 205.049L1286.45 239.783Z" fill="#6C63FF"/>
<path d="M1325.02 251.637L1323.21 208.27C1321.84 200.117 1326.31 192.41 1333.18 191.151C1340.05 189.896 1346.76 195.55 1348.14 203.762L1354.94 244.285L1325.02 251.637Z" fill="#6C63FF"/>
<path d="M1338.27 304.793C1349.04 347.628 1350.21 402.089 1347.31 461.494L1332.85 459.606L1306.65 346.328L1292.2 461.494L1275.94 460.55C1271.08 398.219 1266.35 344.709 1274.13 309.513L1338.27 304.793Z" fill="#2F2E41"/>
<path d="M1321.63 166.958C1317.49 171.566 1309.8 169.092 1309.26 162.798C1309.22 162.309 1309.22 161.818 1309.27 161.33C1309.55 158.542 1311.09 156.01 1310.72 153.066C1310.64 152.334 1310.38 151.636 1309.96 151.038C1306.66 146.422 1298.92 153.102 1295.81 148.924C1293.9 146.362 1296.14 142.328 1294.68 139.465C1292.74 135.686 1287.02 137.55 1283.42 135.48C1279.43 133.177 1279.67 126.772 1282.3 122.876C1285.51 118.124 1291.13 115.588 1296.68 115.223C1302.24 114.858 1307.75 116.426 1312.94 118.538C1318.83 120.937 1324.67 124.252 1328.3 129.665C1332.71 136.247 1333.13 145.097 1330.93 152.794C1329.58 157.476 1325.01 163.196 1321.63 166.958Z" fill="#2F2E41"/>
<path d="M1177.72 383.504H1060.27C1058.72 383.512 1057.24 382.88 1056.13 381.744C1055.03 380.609 1054.41 379.064 1054.4 377.448V103.534C1054.41 101.918 1055.03 100.372 1056.13 99.237C1057.24 98.1017 1058.72 97.469 1060.27 97.4777H1177.72C1179.26 97.469 1180.75 98.1017 1181.85 99.237C1182.95 100.372 1183.58 101.918 1183.59 103.534V377.448C1183.58 379.064 1182.95 380.609 1181.85 381.744C1180.75 382.88 1179.26 383.512 1177.72 383.504Z" fill="white"/>
<path d="M1183.59 186.108H1054.4V187.996H1183.59V186.108Z" fill="#CCCCCC"/>
<path d="M1184.04 293.826H1054.85V295.713H1184.04V293.826Z" fill="#CCCCCC"/>
<path d="M1096.86 97.4778H1095.05V384.447H1096.86V97.4778Z" fill="#CCCCCC"/>
<path d="M1142.03 97.4778H1140.22V384.447H1142.03V97.4778Z" fill="#CCCCCC"/>
</g>
</g>
<defs>
<linearGradient id="paint0_linear_1_2" x1="950.6" y1="484.052" x2="631.046" y2="1081.69" gradientUnits="userSpaceOnUse">
<stop stop-color="#45A7BD"/>
<stop offset="1" stop-color="#C4C4C4"/>
</linearGradient>
<linearGradient id="paint1_linear_1_2" x1="713" y1="-28" x2="397.155" y2="1112.94" gradientUnits="userSpaceOnUse">
<stop stop-color="#CACBDE"/>
<stop offset="1" stop-color="#2F3155" stop-opacity="0"/>
</linearGradient>
<linearGradient id="paint2_linear_1_2" x1="141.029" y1="327.029" x2="38.8235" y2="454.971" gradientUnits="userSpaceOnUse">
<stop stop-color="#A3EDF8"/>
<stop offset="1" stop-color="#7DAEB5" stop-opacity="0"/>
</linearGradient>
<clipPath id="clip0_1_2">
<rect width="1440" height="1024" fill="white"/>
</clipPath>
<clipPath id="clip1_1_2">
<rect width="786" height="491" fill="white" transform="translate(754 -4)"/>
</clipPath>
</defs>
</svg>
