<svg width="1440" height="1024" viewBox="0 0 1440 1024" fill="none" xmlns="http://www.w3.org/2000/svg">
<g clip-path="url(#clip0_1_2)">
<rect width="1440" height="1024" fill="white"/>
<path d="M1105.46 -28H-47V1122C-29.1018 1035.06 362.892 1044 1473 1122V445.098V402.756C1093.34 460.198 985.385 392.145 1105.46 -28Z" fill="url(#paint0_linear_1_2)" stroke="url(#paint1_linear_1_2)"/>
<circle cx="55" cy="366" r="125" fill="url(#paint2_linear_1_2)"/>
<path d="M180 1001C180 1070.04 124.036 1126 55 1126C-14.0356 1126 -70 1070.04 -70 1001C-70 931.964 -14.0356 876 55 876C124.036 876 180 931.964 180 1001Z" fill="#D7E7E9"/>
<path d="M180 1001C180 1070.04 124.036 1126 55 1126C-14.0356 1126 -70 1070.04 -70 1001C-70 931.964 -14.0356 876 55 876C124.036 876 180 931.964 180 1001Z" fill="#D7E7E9"/>
<path d="M371 1061C371 1130.04 315.036 1186 246 1186C176.964 1186 121 1130.04 121 1061C121 991.964 176.964 936 246 936C315.036 936 371 991.964 371 1061Z" fill="#D7E7E9"/>
<path d="M371 1061C371 1130.04 315.036 1186 246 1186C176.964 1186 121 1130.04 121 1061C121 991.964 176.964 936 246 936C315.036 936 371 991.964 371 1061Z" fill="#D7E7E9"/>
<path d="M521 1001C521 1070.04 465.036 1126 396 1126C326.964 1126 271 1070.04 271 1001C271 931.964 326.964 876 396 876C465.036 876 521 931.964 521 1001Z" fill="#D7E7E9"/>
<path d="M521 1001C521 1070.04 465.036 1126 396 1126C326.964 1126 271 1070.04 271 1001C271 931.964 326.964 876 396 876C465.036 876 521 931.964 521 1001Z" fill="#D7E7E9"/>
<path d="M1526 1040C1526 1109.04 1470.04 1165 1401 1165C1331.96 1165 1276 1109.04 1276 1040C1276 970.964 1331.96 915 1401 915C1470.04 915 1526 970.964 1526 1040Z" fill="#D7E7E9"/>
<path d="M1526 1040C1526 1109.04 1470.04 1165 1401 1165C1331.96 1165 1276 1109.04 1276 1040C1276 970.964 1331.96 915 1401 915C1470.04 915 1526 970.964 1526 1040Z" fill="#D7E7E9"/>
<path d="M1345 1001C1345 1070.04 1289.04 1126 1220 1126C1150.96 1126 1095 1070.04 1095 1001C1095 931.964 1150.96 876 1220 876C1289.04 876 1345 931.964 1345 1001Z" fill="#D7E7E9"/>
<path d="M1345 1001C1345 1070.04 1289.04 1126 1220 1126C1150.96 1126 1095 1070.04 1095 1001C1095 931.964 1150.96 876 1220 876C1289.04 876 1345 931.964 1345 1001Z" fill="#D7E7E9"/>
<path d="M1162 1001C1162 1070.04 1106.04 1126 1037 1126C967.964 1126 912 1070.04 912 1001C912 931.964 967.964 876 1037 876C1106.04 876 1162 931.964 1162 1001Z" fill="#D7E7E9"/>
<path d="M1162 1001C1162 1070.04 1106.04 1126 1037 1126C967.964 1126 912 1070.04 912 1001C912 931.964 967.964 876 1037 876C1106.04 876 1162 931.964 1162 1001Z" fill="#D7E7E9"/>
<path d="M1037 1061C1037 1130.04 981.036 1186 912 1186C842.964 1186 787 1130.04 787 1061C787 991.964 842.964 936 912 936C981.036 936 1037 991.964 1037 1061Z" fill="#D7E7E9"/>
<path d="M1037 1061C1037 1130.04 981.036 1186 912 1186C842.964 1186 787 1130.04 787 1061C787 991.964 842.964 936 912 936C981.036 936 1037 991.964 1037 1061Z" fill="#D7E7E9"/>
<path d="M885 1001C885 1070.04 829.036 1126 760 1126C690.964 1126 635 1070.04 635 1001C635 931.964 690.964 876 760 876C829.036 876 885 931.964 885 1001Z" fill="#D7E7E9"/>
<path d="M885 1001C885 1070.04 829.036 1126 760 1126C690.964 1126 635 1070.04 635 1001C635 931.964 690.964 876 760 876C829.036 876 885 931.964 885 1001Z" fill="#D7E7E9"/>
<path d="M704 1001C704 1070.04 648.036 1126 579 1126C509.964 1126 454 1070.04 454 1001C454 931.964 509.964 876 579 876C648.036 876 704 931.964 704 1001Z" fill="#D7E7E9"/>
<path d="M704 1001C704 1070.04 648.036 1126 579 1126C509.964 1126 454 1070.04 454 1001C454 931.964 509.964 876 579 876C648.036 876 704 931.964 704 1001Z" fill="#D7E7E9"/>
<path d="M519.303 94.3631L516.831 96.3721C517.667 95.6689 518.537 95.0097 519.43 94.3858C519.388 94.3786 519.346 94.3704 519.303 94.3631Z" fill="#F2F2F2"/>
<path d="M663.036 170.751C664.644 176.59 668.265 181.672 673.26 185.099C675.192 186.413 677.477 187.674 678.137 189.915C678.485 191.343 678.271 192.85 677.539 194.125C676.809 195.383 675.92 196.543 674.895 197.576L674.801 197.927C670.009 195.087 665.45 191.496 662.802 186.596C660.155 181.696 659.786 175.274 663.036 170.751" fill="#F2F2F2"/>
<path d="M822.59 309.722C824.197 315.561 827.819 320.643 832.814 324.07C834.745 325.384 837.03 326.645 837.691 328.886C838.038 330.314 837.824 331.821 837.092 333.096C836.362 334.354 835.474 335.514 834.448 336.547L834.355 336.898C829.562 334.058 825.003 330.467 822.356 325.567C819.709 320.667 819.339 314.245 822.59 309.722" fill="#F2F2F2"/>
<path d="M504.167 300.138C505.775 305.977 509.397 311.059 514.392 314.486C516.323 315.8 518.608 317.061 519.268 319.301C519.616 320.73 519.402 322.237 518.67 323.512C517.94 324.77 517.051 325.93 516.026 326.963L515.933 327.313C511.14 324.474 506.581 320.883 503.934 315.983C501.286 311.083 500.917 304.66 504.167 300.138" fill="#F2F2F2"/>
<path d="M606.089 262.417C605.852 261.723 605.453 261.097 604.925 260.589C604.73 260.408 604.519 260.245 604.295 260.103C602.508 258.912 599.837 258.645 598.139 260.103C597.968 260.251 597.81 260.414 597.666 260.589C597.16 261.212 596.639 261.821 596.105 262.417C595.229 263.416 594.332 264.381 593.393 265.319C593.126 265.579 592.859 265.846 592.585 266.107C592.428 266.264 592.27 266.415 592.113 266.565C591.51 267.14 590.894 267.695 590.271 268.242C589.942 268.537 589.613 268.824 589.278 269.105C588.778 269.523 588.278 269.94 587.771 270.344C587.723 270.378 587.676 270.413 587.628 270.454C587.614 270.461 587.607 270.474 587.593 270.481C587.586 270.481 587.58 270.481 587.573 270.495C587.554 270.502 587.538 270.514 587.525 270.529C587.374 270.632 587.271 270.7 587.196 270.762C587.224 270.748 587.251 270.727 587.278 270.714C587.155 270.81 587.025 270.906 586.902 271.001C585.703 271.884 584.478 272.733 583.224 273.527C580.124 275.511 576.867 277.24 573.487 278.696C573.261 278.785 573.028 278.881 572.795 278.97C563.944 282.595 554.343 284.01 544.822 283.091C543.85 283.016 542.877 282.913 541.905 282.783C540.782 282.619 539.666 282.42 538.556 282.194C534.333 281.352 530.201 280.105 526.217 278.47C521.233 276.189 516.493 273.409 512.069 270.173C511.384 269.687 510.693 269.201 510.001 268.729C510.789 266.798 511.562 264.867 512.316 262.923C512.692 261.985 513.055 261.047 513.411 260.103C516.212 252.826 518.842 245.48 521.361 238.107C523.909 230.638 526.312 223.126 528.572 215.57C528.805 214.804 529.031 214.037 529.25 213.27C530.435 209.279 531.572 205.279 532.66 201.269C532.763 200.879 532.873 200.496 532.969 200.106C533.283 198.955 533.592 197.805 533.893 196.655C534.578 194.061 533.03 190.96 530.305 190.337C528.992 190 527.601 190.186 526.423 190.855C525.245 191.525 524.373 192.625 523.991 193.924C523.697 195.033 523.402 196.135 523.101 197.244C521.656 202.604 520.136 207.946 518.54 213.27C518.307 214.037 518.075 214.804 517.842 215.57C514.322 227.167 510.458 238.648 506.248 250.012C505.742 251.388 505.228 252.759 504.708 254.126C504.454 254.797 504.201 255.468 503.941 256.139C503.441 257.46 502.927 258.781 502.414 260.103C502.119 260.876 501.818 261.65 501.517 262.417C501.318 262.903 501.126 263.389 500.935 263.868C498.982 263.167 496.959 262.68 494.902 262.417L494.573 262.376C492.978 262.184 491.364 262.197 489.773 262.417C487.39 262.695 485.098 263.492 483.058 264.753C481.018 266.014 479.28 267.708 477.967 269.714C474.701 274.856 474.742 282.208 479.323 286.576C484.041 291.073 491.183 291.039 496.737 288.226C499.68 286.634 502.161 284.309 503.941 281.476C504.622 280.449 505.249 279.386 505.817 278.292C505.961 278.388 506.105 278.484 506.248 278.587C506.796 278.97 507.344 279.36 507.885 279.743C511.037 282.026 514.359 284.066 517.821 285.843C525.266 289.543 533.28 291.966 541.528 293.011C541.713 293.031 541.891 293.059 542.076 293.079C542.987 293.196 543.904 293.285 544.822 293.36C557.985 294.352 571.164 291.659 582.882 285.583C583.875 285.07 584.859 284.531 585.833 283.967C587.347 283.091 588.826 282.16 590.271 281.174C591.058 280.64 591.825 280.099 592.585 279.531C595.907 277.085 599.003 274.348 601.837 271.35C602.912 270.221 603.941 269.055 604.925 267.852C605.855 266.868 606.392 265.577 606.432 264.224C606.426 263.606 606.31 262.994 606.089 262.417V262.417ZM492.697 278.723C492.84 278.621 492.984 278.511 493.121 278.402C493.08 278.504 492.882 278.621 492.697 278.723H492.697ZM494.895 276.512C494.737 276.69 494.593 276.868 494.436 277.046C493.957 277.582 493.442 278.085 492.895 278.552C492.82 278.621 492.738 278.689 492.656 278.751C492.655 278.751 492.654 278.751 492.653 278.751C492.652 278.752 492.651 278.752 492.651 278.753C492.65 278.753 492.65 278.754 492.649 278.755C492.649 278.756 492.649 278.757 492.649 278.758C492.55 278.802 492.454 278.852 492.361 278.908C492.067 279.086 491.765 279.251 491.457 279.401C490.854 279.623 490.233 279.795 489.601 279.915C489.116 279.95 488.629 279.955 488.143 279.928H488.129C487.794 279.854 487.462 279.763 487.136 279.654C486.972 279.572 486.814 279.477 486.657 279.381C486.595 279.326 486.54 279.271 486.506 279.237C486.439 279.176 486.378 279.109 486.321 279.038C486.321 279.037 486.321 279.037 486.321 279.036C486.321 279.035 486.32 279.034 486.319 279.034C486.319 279.033 486.318 279.032 486.317 279.032C486.316 279.032 486.315 279.032 486.315 279.032C486.239 278.895 486.157 278.758 486.082 278.621C486.078 278.617 486.075 278.612 486.075 278.607C486.02 278.436 485.972 278.258 485.931 278.08C485.916 277.767 485.918 277.454 485.938 277.142C486.03 276.705 486.153 276.275 486.308 275.855C486.446 275.558 486.604 275.269 486.78 274.992C486.794 274.965 486.862 274.856 486.938 274.732C486.945 274.725 486.945 274.726 486.945 274.719C487.047 274.602 487.15 274.479 487.26 274.37C487.444 274.164 487.643 273.986 487.842 273.801C488.228 273.549 488.628 273.318 489.04 273.11C489.694 272.878 490.365 272.697 491.046 272.569C492.052 272.489 493.062 272.498 494.066 272.596C495.017 272.761 495.955 272.992 496.874 273.288C496.317 274.368 495.683 275.407 494.977 276.396C494.95 276.437 494.922 276.478 494.895 276.512V276.512ZM487.28 274.26C487.22 274.357 487.148 274.446 487.068 274.527C487.122 274.426 487.194 274.336 487.28 274.26V274.26Z" fill="#3F3D56"/>
<path d="M585.505 192.5C585.443 194.649 585.382 196.799 585.32 198.949C585.19 203.72 585.055 208.494 584.916 213.27C584.772 218.644 584.621 224.016 584.464 229.385C584.389 232.158 584.311 234.931 584.231 237.703C584.019 245.172 583.809 252.638 583.601 260.103C583.581 260.876 583.553 261.643 583.533 262.417C583.43 266.12 583.327 269.824 583.224 273.527C583.108 277.546 582.994 281.564 582.882 285.583C582.8 288.595 582.715 291.61 582.629 294.626C582.012 316.485 581.396 338.344 580.78 360.203C580.754 361.556 580.204 362.847 579.247 363.805C578.289 364.762 576.998 365.311 575.644 365.337C574.285 365.326 572.985 364.782 572.024 363.821C571.064 362.861 570.519 361.561 570.508 360.203C570.851 347.908 571.197 335.613 571.549 323.317C571.857 312.2 572.17 301.082 572.487 289.964C572.59 286.302 572.693 282.637 572.795 278.97C572.953 273.452 573.108 267.934 573.261 262.417C573.281 261.643 573.309 260.876 573.329 260.103C573.343 259.425 573.364 258.754 573.384 258.076C573.685 247.363 573.987 236.647 574.288 225.928C574.411 221.711 574.53 217.492 574.644 213.27C574.781 208.458 574.918 203.647 575.055 198.839C575.117 196.724 575.171 194.615 575.233 192.5C575.259 191.146 575.809 189.855 576.766 188.898C577.724 187.941 579.015 187.391 580.369 187.365C581.728 187.376 583.028 187.921 583.988 188.881C584.949 189.842 585.494 191.142 585.505 192.5V192.5Z" fill="#3F3D56"/>
<path d="M867.242 193.925C861.857 214.311 855.42 234.406 847.958 254.128C845.899 259.568 843.792 264.997 841.541 270.361L842.058 269.134C841.053 271.689 839.77 274.125 838.231 276.399C838.126 276.546 838.019 276.691 837.911 276.835C838.443 276.154 838.544 276.02 838.214 276.431C838.04 276.637 837.868 276.844 837.689 277.044C837.209 277.581 836.695 278.085 836.149 278.553C836.011 278.67 835.871 278.785 835.73 278.898L836.372 278.399C836.297 278.575 835.774 278.808 835.611 278.908C835.084 279.226 834.533 279.505 833.964 279.742L835.191 279.224C834.259 279.599 833.287 279.866 832.294 280.019L833.659 279.835C832.683 279.97 831.695 279.981 830.716 279.867L832.081 280.05C831.281 279.94 830.497 279.729 829.75 279.422L830.977 279.94C830.578 279.766 830.193 279.561 829.827 279.327C829.641 279.205 829.07 278.773 829.817 279.343C830.593 279.936 829.917 279.394 829.757 279.237C829.624 279.105 829.504 278.963 829.374 278.829C828.769 278.21 830.056 279.895 829.645 279.171C829.426 278.808 829.225 278.434 829.044 278.05L829.562 279.277C829.326 278.693 829.159 278.084 829.063 277.462L829.247 278.826C829.149 278.053 829.148 277.27 829.244 276.496L829.061 277.86C829.187 276.997 829.415 276.151 829.742 275.341L829.224 276.568C829.452 276.023 829.722 275.497 830.031 274.994C830.173 274.734 830.34 274.489 830.53 274.261C830.564 274.272 829.661 275.296 830.14 274.779C830.265 274.644 830.383 274.501 830.509 274.367C830.712 274.152 830.929 273.955 831.143 273.752C831.858 273.071 830.142 274.413 830.967 273.875C831.566 273.481 832.195 273.138 832.85 272.848L831.623 273.366C832.72 272.916 833.869 272.607 835.044 272.449L833.678 272.632C835.149 272.463 836.636 272.48 838.103 272.684L836.737 272.501C838.594 272.783 840.41 273.293 842.141 274.021L840.915 273.503C844.605 275.087 847.874 277.439 851.137 279.745C854.289 282.027 857.609 284.065 861.07 285.842C868.516 289.543 876.53 291.967 884.779 293.013C896.609 294.461 908.613 292.917 919.691 288.521C930.768 284.125 940.564 277.018 948.18 267.853C949.109 266.868 949.644 265.576 949.684 264.222C949.674 262.862 949.135 261.56 948.18 260.592C946.296 258.862 942.736 258.374 940.917 260.592C939.192 262.696 937.338 264.692 935.365 266.566C934.444 267.439 933.499 268.286 932.529 269.106C931.975 269.574 931.413 270.033 930.844 270.483C930.574 270.695 929.735 271.262 931.024 270.347C930.728 270.557 930.445 270.786 930.154 271.001C925.841 274.179 921.168 276.837 916.231 278.918L917.457 278.4C912.16 280.622 906.596 282.146 900.906 282.934L902.271 282.751C896.417 283.521 890.487 283.512 884.635 282.725L886.001 282.908C880.15 282.105 874.429 280.547 868.979 278.273L870.206 278.791C864.947 276.465 859.956 273.574 855.321 270.171C852.909 268.385 850.365 266.785 847.711 265.383C844.62 263.804 841.272 262.787 837.825 262.379C831.361 261.618 824.775 264.135 821.221 269.718C817.951 274.855 817.993 282.207 822.573 286.576C827.289 291.075 834.432 291.037 839.991 288.223C845.344 285.512 848.559 279.881 850.82 274.571C855.909 262.621 860.414 250.395 864.612 238.108C868.764 225.951 872.53 213.671 875.91 201.268C876.328 199.732 876.74 198.194 877.147 196.655C877.832 194.061 876.283 190.959 873.56 190.339C872.247 190.001 870.855 190.186 869.676 190.855C868.497 191.524 867.625 192.625 867.242 193.925L867.242 193.925Z" fill="#3F3D56"/>
<path d="M918.486 192.5L916.637 258.078L914.798 323.315L913.759 360.203C913.77 361.561 914.315 362.861 915.276 363.821C916.236 364.781 917.536 365.326 918.894 365.338C920.248 365.312 921.54 364.762 922.497 363.805C923.455 362.848 924.004 361.557 924.03 360.203L925.879 294.625L927.718 229.388L928.758 192.5C928.746 191.141 928.201 189.842 927.241 188.882C926.28 187.921 924.98 187.377 923.622 187.365C922.268 187.391 920.977 187.941 920.019 188.898C919.062 189.855 918.512 191.146 918.486 192.5V192.5Z" fill="#3F3D56"/>
<path opacity="0.2" d="M740.719 341.894H742.313V269.299H779.516V267.709H742.313V237.077H771.044C770.622 236.542 770.189 236.013 769.743 235.491H742.313V215.26C741.786 215.035 741.254 214.818 740.719 214.614V235.491H709.457V209.569C708.921 209.594 708.394 209.631 707.862 209.676V235.491H682.922V216.151C682.387 216.388 681.859 216.637 681.336 216.899V235.491H660.371V237.077H681.336V267.709H660.371V269.299H681.336V341.894H682.922V269.299C686.198 269.298 689.441 269.943 692.467 271.196C695.493 272.448 698.243 274.285 700.559 276.6C702.875 278.916 704.712 281.664 705.965 284.69C707.218 287.715 707.863 290.957 707.862 294.232V341.894H709.457V269.299H740.719V341.894ZM682.922 267.709V237.077H707.862V267.709H682.922ZM709.457 267.709V237.077H710.083C714.106 237.078 718.09 237.87 721.807 239.41C725.524 240.949 728.902 243.206 731.746 246.05C734.591 248.894 736.848 252.271 738.387 255.987C739.927 259.704 740.719 263.687 740.719 267.709H709.457Z" fill="black"/>
<path d="M730.979 320.127C728.972 329.081 724.162 337.162 717.249 343.198C716.743 343.636 716.236 344.06 715.709 344.478C714.428 344.594 713.157 344.713 711.894 344.834C710.847 344.93 709.813 345.032 708.786 345.128L708.601 345.149L708.471 344.026L707.95 339.48C705.931 336.185 704.68 332.478 704.289 328.634C703.897 324.79 704.376 320.907 705.69 317.273C707.498 312.398 710.771 308.092 713.99 303.82C718.434 297.919 722.755 292.087 722.913 284.892C725.099 287.689 726.917 290.756 728.322 294.017C726.997 294.641 725.806 295.518 724.816 296.598C724.535 296.906 724.255 297.337 724.446 297.707C724.611 298.022 725.022 298.097 725.378 298.138C726.234 298.227 727.097 298.316 727.953 298.405C728.637 298.481 729.322 298.549 730.007 298.624C730.835 301.343 731.397 304.135 731.685 306.963C732.146 311.361 731.908 315.804 730.979 320.127V320.127Z" fill="#3F3D56"/>
<path d="M753.714 302.184C749.674 305.121 747.311 309.345 745.476 314C743.595 314.602 741.903 315.683 740.566 317.136C740.285 317.444 740.005 317.875 740.196 318.245C740.361 318.56 740.772 318.635 741.128 318.676C741.984 318.765 742.846 318.854 743.702 318.943C741.867 324.447 740.183 330.143 736.937 334.791C734.778 337.86 731.964 340.411 728.699 342.26C727.809 342.767 726.889 343.222 725.946 343.622C722.467 343.889 719.055 344.174 715.709 344.478C714.428 344.594 713.157 344.713 711.894 344.834C710.847 344.93 709.813 345.033 708.786 345.128C708.779 344.752 708.779 344.375 708.786 343.999C709.002 333.969 712.693 324.324 719.228 316.711C719.537 316.355 719.852 316.006 720.173 315.657C723.484 312.121 727.378 309.181 731.685 306.963C738.47 303.435 746.076 301.786 753.714 302.184V302.184Z" fill="#6C63FF"/>
<path d="M713.079 341.322L712.292 343.65L711.894 344.834C710.847 344.93 709.813 345.033 708.786 345.128L708.601 345.149C707.464 345.265 706.334 345.382 705.204 345.498C704.91 345.156 704.615 344.807 704.328 344.451C697.18 335.798 693.749 324.668 694.785 313.494C695.82 302.32 701.238 292.009 709.854 284.816C708.95 289.547 710.004 294.079 711.737 298.576C711.552 298.652 711.374 298.727 711.203 298.809C709.877 299.433 708.686 300.31 707.697 301.39C707.416 301.698 707.135 302.129 707.327 302.499C707.491 302.814 707.902 302.889 708.258 302.93C709.114 303.019 709.977 303.108 710.833 303.197C711.518 303.273 712.203 303.341 712.887 303.416C713.209 303.451 713.531 303.485 713.853 303.519C713.901 303.622 713.942 303.718 713.99 303.82C715.942 308.051 718.044 312.302 719.228 316.711C719.525 317.817 719.759 318.94 719.927 320.072C720.454 323.901 720.113 327.799 718.927 331.478C717.742 335.157 715.743 338.521 713.079 341.322V341.322Z" fill="#6C63FF"/>
<path d="M782.008 242.03C776.113 230.534 766.98 220.862 756.238 213.754C745.462 206.656 733.097 202.334 720.244 201.172C718.559 201.019 716.871 200.929 715.178 200.903C713.177 200.873 683.085 209.55 673.004 216.636C662.929 223.635 654.641 232.904 648.809 243.696C642.987 254.546 640.123 266.736 640.505 279.043C641.004 291.424 644.456 303.506 650.573 314.283C656.607 325.024 665.174 334.13 675.53 340.808C686.033 347.507 696.583 365.272 708.984 365.899C721.478 366.531 735.728 349.773 747.123 344.685C758.518 339.555 768.37 331.529 775.696 321.406C782.815 311.486 787.42 299.987 789.117 287.897C790.879 275.518 790.058 262.75 785.829 250.918C784.744 247.878 783.468 244.909 782.008 242.03C780.789 239.63 777.217 238.747 774.981 240.188C773.829 240.897 772.995 242.023 772.652 243.331C772.308 244.64 772.483 246.03 773.138 247.213C773.854 248.622 774.52 250.055 775.135 251.51L774.617 250.284C776.945 255.88 778.528 261.758 779.326 267.767L779.142 266.402C779.991 272.921 779.976 279.523 779.097 286.038L779.281 284.673C778.393 291.187 776.654 297.557 774.107 303.618L774.625 302.392C773.315 305.484 771.789 308.481 770.057 311.359C769.179 312.813 768.247 314.232 767.262 315.618C766.83 316.226 766.384 316.823 765.935 317.419C765.348 318.196 766.734 316.404 766.128 317.166C766.025 317.296 765.922 317.426 765.818 317.556C765.507 317.945 765.192 318.33 764.872 318.711C762.737 321.258 760.407 323.634 757.904 325.82C757.28 326.364 756.646 326.896 756.001 327.416C755.68 327.675 755.363 327.945 755.028 328.186C755.041 328.176 756.11 327.364 755.477 327.836C755.278 327.984 755.081 328.134 754.882 328.282C753.553 329.266 752.19 330.2 750.791 331.083C747.57 333.112 744.191 334.878 740.686 336.364L741.913 335.846C735.868 338.39 729.514 340.128 723.016 341.016L724.381 340.832C717.885 341.71 711.302 341.722 704.804 340.867L706.169 341.05C700.263 340.258 694.486 338.696 688.984 336.406L690.211 336.923C687.025 335.578 683.952 333.978 681.024 332.137C679.575 331.225 678.163 330.255 676.79 329.23C676.594 329.084 676.399 328.935 676.204 328.788C675.577 328.315 676.655 329.137 676.663 329.142C676.299 328.881 675.948 328.601 675.612 328.304C674.948 327.764 674.295 327.211 673.653 326.646C671.081 324.382 668.679 321.931 666.467 319.314C665.913 318.66 665.371 317.996 664.841 317.322C664.612 317.03 664.193 316.439 665.118 317.684C664.996 317.52 664.87 317.359 664.747 317.196C664.452 316.805 664.161 316.411 663.874 316.014C662.868 314.622 661.912 313.197 661.006 311.738C658.958 308.434 657.171 304.976 655.661 301.395L656.179 302.621C653.708 296.743 652.018 290.566 651.152 284.249L651.336 285.614C650.555 279.791 650.544 273.89 651.303 268.064L651.119 269.429C651.897 263.787 653.415 258.272 655.635 253.027L655.117 254.253C656.514 250.97 658.161 247.798 660.044 244.768C660.987 243.251 661.986 241.771 663.042 240.328C663.282 240 663.524 239.675 663.77 239.351C663.991 239.058 664.602 238.328 663.56 239.617C663.663 239.49 663.761 239.36 663.861 239.233C664.441 238.499 665.034 237.777 665.641 237.066C667.941 234.375 670.432 231.854 673.094 229.522C673.767 228.932 674.451 228.355 675.145 227.79C675.46 227.534 675.778 227.28 676.097 227.028C676.225 226.928 676.355 226.829 676.482 226.728C675.114 227.816 676.102 227.024 676.412 226.792C677.843 225.72 679.312 224.702 680.819 223.738C684.17 221.596 687.694 219.739 691.356 218.187L690.129 218.705C695.443 216.474 718.986 211.209 723.268 211.784L721.903 211.6C728.196 212.479 734.348 214.178 740.2 216.654L738.973 216.137C741.938 217.395 744.821 218.843 747.601 220.469C748.991 221.284 750.353 222.142 751.688 223.045C752.319 223.473 752.944 223.91 753.563 224.356C753.872 224.579 754.179 224.805 754.484 225.033C754.654 225.16 754.823 225.288 754.992 225.415C755.704 225.948 754.012 224.643 754.758 225.233C757.255 227.194 759.626 229.309 761.858 231.567C762.954 232.683 764.012 233.834 765.033 235.021C765.556 235.63 766.069 236.248 766.571 236.875C766.821 237.186 767.67 238.313 766.629 236.933C766.883 237.27 767.141 237.605 767.392 237.945C769.556 240.873 771.478 243.973 773.138 247.213C774.366 249.607 777.923 250.5 780.165 249.055C781.318 248.346 782.152 247.22 782.496 245.912C782.839 244.603 782.664 243.213 782.008 242.03Z" fill="#3F3D56"/>
<path d="M722.165 325.82C721.635 325.844 721.11 325.705 720.661 325.421C720.213 325.138 719.863 324.723 719.658 324.233C719.453 323.744 719.404 323.203 719.517 322.685C719.63 322.166 719.899 321.695 720.289 321.335C720.354 321.076 720.401 320.889 720.466 320.63C720.443 320.574 720.419 320.517 720.396 320.461C718.013 314.78 702.807 330.616 702.15 335.954C701.86 338.314 701.982 340.706 702.511 343.024C697.585 332.283 695.028 320.609 695.011 308.793C695.01 305.828 695.175 302.865 695.505 299.919C695.778 297.503 696.156 295.105 696.64 292.723C699.279 279.803 704.947 267.693 713.178 257.387C717.885 257.65 722.01 256.933 722.409 247.813C722.479 246.191 723.683 244.786 723.948 243.188C723.499 243.247 723.042 243.284 722.593 243.313C722.453 243.321 722.305 243.328 722.165 243.335L722.113 243.338C721.619 243.36 721.129 243.239 720.702 242.989C720.276 242.74 719.93 242.372 719.708 241.931C719.485 241.489 719.395 240.993 719.448 240.502C719.501 240.01 719.695 239.545 720.007 239.161C720.201 238.922 720.395 238.684 720.589 238.445C720.884 238.077 721.186 237.716 721.48 237.348C721.514 237.313 721.546 237.276 721.576 237.237C721.915 236.818 722.254 236.405 722.593 235.985C721.974 235.026 721.142 234.222 720.162 233.636C716.766 231.648 712.08 233.025 709.627 236.096C707.167 239.167 706.703 243.475 707.557 247.312C708.397 250.577 709.788 253.676 711.668 256.474C711.484 256.71 711.292 256.938 711.108 257.174C707.741 261.502 704.807 266.149 702.347 271.049C703.043 265.614 694.533 245.988 691.241 241.831C687.288 236.837 679.182 239.016 678.485 245.346C678.479 245.408 678.472 245.469 678.466 245.53C678.954 245.806 679.433 246.099 679.901 246.408C680.489 246.801 680.945 247.362 681.209 248.018C681.472 248.675 681.531 249.395 681.378 250.086C681.225 250.776 680.867 251.404 680.351 251.888C679.835 252.371 679.185 252.688 678.486 252.795L678.414 252.806C671.87 262.147 692.847 286.457 698.098 280.999C695.627 288 694.077 295.294 693.487 302.695C693.152 307.062 693.172 311.448 693.545 315.812L693.523 315.657C692.357 306.153 672.342 292.023 666.498 293.2C663.131 293.878 659.815 293.724 660.326 297.12C660.334 297.174 660.342 297.228 660.351 297.282C661.258 297.651 662.141 298.077 662.995 298.556C663.484 298.832 663.963 299.125 664.431 299.434C665.019 299.827 665.475 300.388 665.738 301.045C666.002 301.701 666.061 302.421 665.908 303.112C665.755 303.802 665.397 304.43 664.881 304.914C664.365 305.397 663.714 305.714 663.015 305.822L662.944 305.833C662.892 305.84 662.848 305.847 662.796 305.855C659.818 316.1 681.907 332.636 695.336 327.374H695.343C696.674 333.156 698.602 338.783 701.096 344.166H721.65C721.723 343.938 721.79 343.702 721.856 343.474C719.954 343.593 718.044 343.479 716.169 343.135C717.694 341.264 719.219 339.379 720.744 337.508C720.778 337.473 720.81 337.436 720.839 337.398C721.613 336.44 722.394 335.49 723.167 334.533L723.168 334.532C723.209 331.597 722.872 328.669 722.165 325.82L722.165 325.82ZM698.628 279.533L698.639 279.518L698.628 279.548V279.533ZM694.076 320.562L693.899 320.164C693.906 319.877 693.906 319.59 693.899 319.295C693.899 319.214 693.884 319.133 693.884 319.052C693.951 319.56 694.01 320.069 694.083 320.577L694.076 320.562Z" fill="#3F3D56"/>
<path d="M491.224 283.064C495.384 283.064 498.757 279.692 498.757 275.533C498.757 271.374 495.384 268.003 491.224 268.003C487.064 268.003 483.692 271.374 483.692 275.533C483.692 279.692 487.064 283.064 491.224 283.064Z" fill="#3F3D56"/>
<path d="M581.615 365.214C585.775 365.214 589.148 361.843 589.148 357.684C589.148 353.525 585.775 350.153 581.615 350.153C577.455 350.153 574.083 353.525 574.083 357.684C574.083 361.843 577.455 365.214 581.615 365.214Z" fill="#3F3D56"/>
<path d="M924.69 365.214C928.85 365.214 932.222 361.843 932.222 357.684C932.222 353.525 928.85 350.153 924.69 350.153C920.529 350.153 917.157 353.525 917.157 357.684C917.157 361.843 920.529 365.214 924.69 365.214Z" fill="#3F3D56"/>
<path d="M943.179 269.372C947.339 269.372 950.711 266.001 950.711 261.842C950.711 257.683 947.339 254.311 943.179 254.311C939.018 254.311 935.646 257.683 935.646 261.842C935.646 266.001 939.018 269.372 943.179 269.372Z" fill="#3F3D56"/>
<path d="M921.266 199.544C925.426 199.544 928.798 196.173 928.798 192.014C928.798 187.855 925.426 184.483 921.266 184.483C917.106 184.483 913.733 187.855 913.733 192.014C913.733 196.173 917.106 199.544 921.266 199.544Z" fill="#3F3D56"/>
<path d="M606.952 261.842C606.948 263.765 606.203 265.613 604.874 267.004C603.544 268.394 601.731 269.22 599.809 269.311C597.887 269.402 596.003 268.751 594.548 267.492C593.093 266.234 592.178 264.464 591.992 262.549C591.806 260.635 592.363 258.722 593.548 257.207C594.733 255.691 596.456 254.69 598.36 254.409C600.263 254.128 602.202 254.589 603.774 255.698C605.347 256.806 606.433 258.476 606.808 260.363C606.905 260.85 606.953 261.345 606.952 261.842V261.842Z" fill="#3F3D56"/>
<path d="M757.603 221.451C761.764 221.451 765.136 218.08 765.136 213.921C765.136 209.762 761.764 206.39 757.603 206.39C753.443 206.39 750.071 209.762 750.071 213.921C750.071 218.08 753.443 221.451 757.603 221.451Z" fill="#3F3D56"/>
<path d="M682.963 213.921C682.958 215.844 682.214 217.692 680.884 219.083C679.555 220.473 677.741 221.299 675.819 221.39C673.897 221.481 672.014 220.83 670.559 219.571C669.104 218.312 668.189 216.543 668.002 214.628C667.816 212.714 668.373 210.801 669.559 209.286C670.744 207.77 672.467 206.769 674.37 206.488C676.274 206.207 678.212 206.668 679.785 207.777C681.357 208.885 682.444 210.555 682.819 212.442C682.915 212.929 682.964 213.424 682.963 213.921V213.921Z" fill="#3F3D56"/>
<path d="M585.724 192.014C585.719 193.937 584.975 195.786 583.646 197.176C582.316 198.566 580.503 199.392 578.581 199.483C576.659 199.574 574.775 198.923 573.32 197.664C571.865 196.406 570.95 194.636 570.764 192.722C570.578 190.807 571.135 188.894 572.32 187.379C573.505 185.864 575.228 184.862 577.131 184.581C579.035 184.3 580.974 184.762 582.546 185.87C584.119 186.978 585.205 188.648 585.58 190.535C585.677 191.022 585.725 191.517 585.724 192.014V192.014Z" fill="#3F3D56"/>
<path d="M836.353 285.802C840.513 285.802 843.886 282.431 843.886 278.272C843.886 274.113 840.513 270.741 836.353 270.741C832.193 270.741 828.82 274.113 828.82 278.272C828.82 282.431 832.193 285.802 836.353 285.802Z" fill="#3F3D56"/>
<path d="M717.886 217.343C723.937 217.343 728.843 212.439 728.843 206.39C728.843 200.341 723.937 195.437 717.886 195.437C711.835 195.437 706.93 200.341 706.93 206.39C706.93 212.439 711.835 217.343 717.886 217.343Z" fill="#3F3D56"/>
</g>
<defs>
<linearGradient id="paint0_linear_1_2" x1="950.6" y1="484.052" x2="631.046" y2="1081.69" gradientUnits="userSpaceOnUse">
<stop stop-color="#45A7BD"/>
<stop offset="1" stop-color="#C4C4C4"/>
</linearGradient>
<linearGradient id="paint1_linear_1_2" x1="713" y1="-28" x2="397.155" y2="1112.94" gradientUnits="userSpaceOnUse">
<stop stop-color="#CACBDE"/>
<stop offset="1" stop-color="#2F3155" stop-opacity="0"/>
</linearGradient>
<linearGradient id="paint2_linear_1_2" x1="141.029" y1="327.029" x2="38.8235" y2="454.971" gradientUnits="userSpaceOnUse">
<stop stop-color="#A3EDF8"/>
<stop offset="1" stop-color="#7DAEB5" stop-opacity="0"/>
</linearGradient>
<clipPath id="clip0_1_2">
<rect width="1440" height="1024" fill="white"/>
</clipPath>
</defs>
</svg>
