<svg width="1440" height="1024" viewBox="0 0 1440 1024" fill="none" xmlns="http://www.w3.org/2000/svg">
<g clip-path="url(#clip0_1_2)">
<rect width="1440" height="1024" fill="white"/>
<path d="M1105.46 -28H-47V1122C-29.1018 1035.06 362.892 1044 1473 1122V445.098V402.756C1093.34 460.198 985.385 392.145 1105.46 -28Z" fill="url(#paint0_linear_1_2)" stroke="url(#paint1_linear_1_2)"/>
<circle cx="55" cy="366" r="125" fill="url(#paint2_linear_1_2)"/>
<path d="M180 1001C180 1070.04 124.036 1126 55 1126C-14.0356 1126 -70 1070.04 -70 1001C-70 931.964 -14.0356 876 55 876C124.036 876 180 931.964 180 1001Z" fill="#D7E7E9"/>
<path d="M180 1001C180 1070.04 124.036 1126 55 1126C-14.0356 1126 -70 1070.04 -70 1001C-70 931.964 -14.0356 876 55 876C124.036 876 180 931.964 180 1001Z" fill="#D7E7E9"/>
<path d="M371 1061C371 1130.04 315.036 1186 246 1186C176.964 1186 121 1130.04 121 1061C121 991.964 176.964 936 246 936C315.036 936 371 991.964 371 1061Z" fill="#D7E7E9"/>
<path d="M371 1061C371 1130.04 315.036 1186 246 1186C176.964 1186 121 1130.04 121 1061C121 991.964 176.964 936 246 936C315.036 936 371 991.964 371 1061Z" fill="#D7E7E9"/>
<path d="M521 1001C521 1070.04 465.036 1126 396 1126C326.964 1126 271 1070.04 271 1001C271 931.964 326.964 876 396 876C465.036 876 521 931.964 521 1001Z" fill="#D7E7E9"/>
<path d="M521 1001C521 1070.04 465.036 1126 396 1126C326.964 1126 271 1070.04 271 1001C271 931.964 326.964 876 396 876C465.036 876 521 931.964 521 1001Z" fill="#D7E7E9"/>
<path d="M1526 1040C1526 1109.04 1470.04 1165 1401 1165C1331.96 1165 1276 1109.04 1276 1040C1276 970.964 1331.96 915 1401 915C1470.04 915 1526 970.964 1526 1040Z" fill="#D7E7E9"/>
<path d="M1526 1040C1526 1109.04 1470.04 1165 1401 1165C1331.96 1165 1276 1109.04 1276 1040C1276 970.964 1331.96 915 1401 915C1470.04 915 1526 970.964 1526 1040Z" fill="#D7E7E9"/>
<path d="M1345 1001C1345 1070.04 1289.04 1126 1220 1126C1150.96 1126 1095 1070.04 1095 1001C1095 931.964 1150.96 876 1220 876C1289.04 876 1345 931.964 1345 1001Z" fill="#D7E7E9"/>
<path d="M1345 1001C1345 1070.04 1289.04 1126 1220 1126C1150.96 1126 1095 1070.04 1095 1001C1095 931.964 1150.96 876 1220 876C1289.04 876 1345 931.964 1345 1001Z" fill="#D7E7E9"/>
<path d="M1162 1001C1162 1070.04 1106.04 1126 1037 1126C967.964 1126 912 1070.04 912 1001C912 931.964 967.964 876 1037 876C1106.04 876 1162 931.964 1162 1001Z" fill="#D7E7E9"/>
<path d="M1162 1001C1162 1070.04 1106.04 1126 1037 1126C967.964 1126 912 1070.04 912 1001C912 931.964 967.964 876 1037 876C1106.04 876 1162 931.964 1162 1001Z" fill="#D7E7E9"/>
<path d="M1037 1061C1037 1130.04 981.036 1186 912 1186C842.964 1186 787 1130.04 787 1061C787 991.964 842.964 936 912 936C981.036 936 1037 991.964 1037 1061Z" fill="#D7E7E9"/>
<path d="M1037 1061C1037 1130.04 981.036 1186 912 1186C842.964 1186 787 1130.04 787 1061C787 991.964 842.964 936 912 936C981.036 936 1037 991.964 1037 1061Z" fill="#D7E7E9"/>
<path d="M885 1001C885 1070.04 829.036 1126 760 1126C690.964 1126 635 1070.04 635 1001C635 931.964 690.964 876 760 876C829.036 876 885 931.964 885 1001Z" fill="#D7E7E9"/>
<path d="M885 1001C885 1070.04 829.036 1126 760 1126C690.964 1126 635 1070.04 635 1001C635 931.964 690.964 876 760 876C829.036 876 885 931.964 885 1001Z" fill="#D7E7E9"/>
<path d="M704 1001C704 1070.04 648.036 1126 579 1126C509.964 1126 454 1070.04 454 1001C454 931.964 509.964 876 579 876C648.036 876 704 931.964 704 1001Z" fill="#D7E7E9"/>
<path d="M704 1001C704 1070.04 648.036 1126 579 1126C509.964 1126 454 1070.04 454 1001C454 931.964 509.964 876 579 876C648.036 876 704 931.964 704 1001Z" fill="#D7E7E9"/>
<g clip-path="url(#clip1_1_2)">
<path d="M1406.54 118.404H1403.78V42.773C1403.78 31.1637 1399.17 20.0298 1390.96 11.8208C1382.75 3.61178 1371.62 -1 1360.01 -1H1199.77C1194.02 -1.00009 1188.33 0.132037 1183.02 2.33175C1177.71 4.53146 1172.89 7.75568 1168.82 11.8203C1164.76 15.8849 1161.53 20.7104 1159.33 26.0211C1157.13 31.3319 1156 37.0239 1156 42.7723V457.691C1156 463.439 1157.13 469.131 1159.33 474.442C1161.53 479.753 1164.76 484.578 1168.82 488.643C1172.89 492.707 1177.71 495.932 1183.02 498.131C1188.33 500.331 1194.02 501.464 1199.77 501.464H1360C1371.61 501.464 1382.75 496.852 1390.96 488.643C1399.16 480.434 1403.78 469.3 1403.78 457.691V172.24H1406.53L1406.54 118.404Z" fill="#3F3D56"/>
<path d="M1394.85 39.8411V460.621C1394.85 469.423 1391.35 477.864 1385.13 484.089C1378.91 490.314 1370.47 493.812 1361.67 493.815H1198.14C1189.34 493.817 1180.89 490.32 1174.67 484.095C1168.44 477.87 1164.94 469.426 1164.94 460.621V39.8411C1164.94 31.036 1168.44 22.5924 1174.67 16.3676C1180.89 10.1427 1189.34 6.64634 1198.14 6.64746H1217.98C1217 9.04272 1216.63 11.6406 1216.9 14.2126C1217.16 16.7847 1218.06 19.2523 1219.5 21.3985C1220.94 23.5447 1222.89 25.3038 1225.17 26.5212C1227.45 27.7385 1230 28.3769 1232.58 28.3802H1325.81C1328.39 28.3769 1330.94 27.7385 1333.22 26.5212C1335.5 25.3038 1337.45 23.5447 1338.89 21.3985C1340.33 19.2523 1341.23 16.7847 1341.49 14.2126C1341.76 11.6406 1341.38 9.04272 1340.41 6.64746H1361.66C1370.46 6.64896 1378.9 10.1457 1385.13 16.3691C1391.35 22.5924 1394.85 31.0328 1394.85 39.8348V39.8411Z" fill="white"/>
<path d="M1356.89 403.544H1205.87C1200.44 403.538 1195.24 401.378 1191.4 397.537C1187.56 393.696 1185.39 388.489 1185.39 383.058V170.606C1185.39 119.023 1227.35 77.0567 1278.93 77.0567H1356.89C1362.32 77.0629 1367.53 79.2232 1371.37 83.0638C1375.21 86.9044 1377.37 92.1116 1377.38 97.5431V383.058C1377.37 388.489 1375.21 393.697 1371.37 397.537C1367.53 401.378 1362.32 403.538 1356.89 403.544Z" fill="#E6E6E6"/>
<path d="M1196.83 454.685C1202.83 454.685 1207.7 449.817 1207.7 443.812C1207.7 437.808 1202.83 432.94 1196.83 432.94C1190.82 432.94 1185.96 437.808 1185.96 443.812C1185.96 449.817 1190.82 454.685 1196.83 454.685Z" fill="#E6E6E6"/>
<path d="M1093.5 455.685C1099.5 455.685 1104.37 450.817 1104.37 444.812C1104.37 438.808 1099.5 433.94 1093.5 433.94C1087.5 433.94 1082.63 438.808 1082.63 444.812C1082.63 450.817 1087.5 455.685 1093.5 455.685Z" fill="#E6E6E6"/>
<path d="M1094.97 404.126L1088.23 411.472L1056.7 388.97L1066.64 378.129L1094.97 404.126Z" fill="#FFB6B6"/>
<path d="M1103.81 408.786L1082.08 432.47L1081.78 432.195C1079.34 429.951 1077.88 426.829 1077.74 423.514C1077.6 420.199 1078.78 416.963 1081.02 414.518L1081.02 414.517L1081.71 407.179L1092.4 402.12L1094.29 400.052L1103.81 408.786Z" fill="#2F2E41"/>
<path d="M1099.38 486.094L1089.41 486.093L1084.67 447.642L1099.38 447.643L1099.38 486.094Z" fill="#FFB6B6"/>
<path d="M1101.92 495.757L1069.78 495.756V495.349C1069.78 492.031 1071.1 488.849 1073.44 486.503C1075.79 484.157 1078.97 482.838 1082.29 482.838H1082.29L1088.16 478.384L1099.12 482.839L1101.92 482.839L1101.92 495.757Z" fill="#2F2E41"/>
<path d="M1051.24 291.986C1051.24 291.986 990.344 350.784 1028.84 368.984H1040.74C1040.74 368.984 1044.32 356.28 1052.5 345.567C1053.63 344.095 1057.84 344.394 1059.01 342.961C1066.15 334.206 1073.89 326.687 1079.24 326.986L1082.74 367.584L1081.01 379.483C1079.93 386.974 1080.21 394.601 1081.86 401.989L1080.64 449.481L1101.99 449.494C1101.99 449.494 1102.85 438.363 1103.57 424.442C1103.77 420.712 1105.37 418.114 1105.53 414.144C1105.89 404.628 1104.67 393.55 1104.44 385.783L1120.54 300.386L1051.24 291.986Z" fill="#2F2E41"/>
<path d="M1079.37 167.406L1069.44 180.69L1045.64 194.688L1059.64 231.087L1060.17 258.169L1058.87 261.436L1060.34 266.786C1060.34 266.786 1059.66 273.047 1056.04 277.696C1049.71 285.824 1040.04 294.658 1049.84 296.885C1065.24 300.385 1119.83 308.084 1122.63 301.785C1123.6 299.606 1123.48 290.391 1122.91 279.269C1122.8 277.189 1120.51 274.927 1120.37 272.747C1120.27 271.112 1122.34 269.574 1122.23 267.915C1120.98 249.431 1119.13 230.387 1119.13 230.387L1124.61 179.425L1102.7 173.769L1100.24 167.497L1079.37 167.406Z" fill="#6C63FF"/>
<path d="M1025.92 365.491L1029.17 369.604C1029.17 369.604 1059.11 390.549 1060.14 392.506L1064.87 396.983L1076.32 384.746L1070.36 377.284C1065.6 371.313 1059.44 366.6 1052.44 363.559V363.559L1043.31 355.464L1025.92 365.491Z" fill="#2F2E41"/>
<path d="M1044.94 306.707L1050.39 253.938L1051.83 232.221L1036.57 229.461C1036.57 229.461 1034.29 244.391 1032.29 253.153C1030.32 261.799 1034.92 305.549 1035.04 306.702C1033.92 307.705 1033.13 309.023 1032.77 310.484C1032.42 311.945 1032.51 313.479 1033.05 314.883C1033.59 316.288 1034.54 317.497 1035.77 318.35C1037.01 319.203 1038.48 319.66 1039.98 319.66C1041.49 319.661 1042.95 319.205 1044.19 318.354C1045.43 317.502 1046.38 316.294 1046.92 314.89C1047.46 313.486 1047.56 311.952 1047.2 310.491C1046.85 309.03 1046.06 307.71 1044.94 306.707V306.707Z" fill="#FFB9B9"/>
<path d="M1025.23 262.803L1051.57 269.49L1051.38 262.096L1053.38 259.975L1057.38 239.051L1063.11 226.793L1061.62 184.877L1047.06 192.596L1047.04 192.61C1044.5 195.406 1042.38 198.554 1040.73 201.956C1035.25 213.112 1029.97 237.683 1027.22 251.954C1027.12 252.253 1026.94 252.517 1026.69 252.71C1025.32 253.967 1024.43 255.657 1024.16 257.496C1023.89 259.335 1024.27 261.21 1025.23 262.803L1025.23 262.803Z" fill="#6C63FF"/>
<path d="M1181.65 276.276C1181.65 276.276 1149.58 242.467 1149.28 241.83C1147.04 224.819 1140.6 217.316 1139.64 218.13L1123.01 223.891C1123.01 223.891 1127.95 239.554 1131.3 248.858C1134.5 257.748 1171.38 279.462 1172 280.534C1171.34 281.993 1171.13 283.618 1171.42 285.194C1171.7 286.771 1172.45 288.224 1173.58 289.363C1174.71 290.501 1176.15 291.27 1177.73 291.568C1179.3 291.867 1180.93 291.68 1182.39 291.034C1183.86 290.388 1185.09 289.312 1185.93 287.948C1186.78 286.585 1187.18 284.998 1187.1 283.399C1187.02 281.799 1186.46 280.262 1185.48 278.99C1184.51 277.718 1183.17 276.771 1181.65 276.276H1181.65Z" fill="#FFB9B9"/>
<path d="M1109.58 180.589C1109.58 180.589 1125.9 172.588 1132.23 188.301C1135.7 197.172 1144.58 218.7 1149 231.953C1149.03 232.037 1149.07 232.117 1149.13 232.19C1150.31 233.948 1150.95 236.016 1150.96 238.135C1150.96 238.29 1150.98 238.444 1151.01 238.594C1151.01 238.594 1133.07 242.089 1127.74 251.492L1125.62 249.195L1125.24 247.586L1109.77 206.291L1109.58 180.589Z" fill="#6C63FF"/>
<path d="M1376.15 244.718H1185.04C1183.34 244.716 1181.71 244.038 1180.5 242.834C1179.3 241.63 1178.62 239.998 1178.62 238.295V210.305C1178.62 208.602 1179.3 206.969 1180.5 205.765C1181.71 204.561 1183.34 203.884 1185.04 203.882H1376.15C1377.85 203.884 1379.49 204.561 1380.69 205.765C1381.89 206.969 1382.57 208.602 1382.57 210.305V238.295C1382.57 239.998 1381.89 241.63 1380.69 242.834C1379.49 244.038 1377.85 244.716 1376.15 244.718V244.718Z" fill="#E6E6E6"/>
<path d="M1357.58 240.385H1189.37C1187.67 240.383 1186.04 239.706 1184.84 238.502C1183.63 237.298 1182.95 235.665 1182.95 233.962V214.641C1182.95 212.938 1183.63 211.305 1184.84 210.101C1186.04 208.897 1187.67 208.22 1189.37 208.218H1371.82C1373.52 208.22 1375.15 208.897 1376.36 210.101C1377.56 211.305 1378.24 212.938 1378.24 214.641V219.726C1378.23 225.203 1376.06 230.454 1372.18 234.328C1368.31 238.201 1363.06 240.379 1357.58 240.385V240.385Z" fill="white"/>
<path d="M1299.56 222.309H1222.75C1222.31 222.309 1221.89 222.134 1221.58 221.823C1221.27 221.513 1221.09 221.091 1221.09 220.652C1221.09 220.213 1221.27 219.792 1221.58 219.481C1221.89 219.17 1222.31 218.996 1222.75 218.996H1299.56C1300 218.996 1300.42 219.17 1300.73 219.481C1301.04 219.792 1301.22 220.213 1301.22 220.652C1301.22 221.091 1301.04 221.513 1300.73 221.823C1300.42 222.134 1300 222.309 1299.56 222.309V222.309Z" fill="#6C63FF"/>
<path d="M1338.44 229.084H1222.75C1222.31 229.084 1221.89 228.909 1221.58 228.599C1221.27 228.288 1221.09 227.867 1221.09 227.427C1221.09 226.988 1221.27 226.567 1221.58 226.256C1221.89 225.945 1222.31 225.771 1222.75 225.771H1338.44C1338.88 225.771 1339.3 225.945 1339.61 226.256C1339.93 226.567 1340.1 226.988 1340.1 227.427C1340.1 227.867 1339.93 228.288 1339.61 228.599C1339.3 228.909 1338.88 229.084 1338.44 229.084V229.084Z" fill="#E6E6E6"/>
<path d="M1376.15 304.105H1185.04C1183.34 304.103 1181.71 303.425 1180.5 302.221C1179.3 301.017 1178.62 299.384 1178.62 297.682V269.691C1178.62 267.989 1179.3 266.356 1180.5 265.152C1181.71 263.948 1183.34 263.27 1185.04 263.268H1376.15C1377.85 263.27 1379.49 263.948 1380.69 265.152C1381.89 266.356 1382.57 267.989 1382.57 269.691V297.682C1382.57 299.384 1381.89 301.017 1380.69 302.221C1379.49 303.425 1377.85 304.103 1376.15 304.105V304.105Z" fill="#E6E6E6"/>
<path d="M1357.58 299.772H1189.37C1187.67 299.77 1186.04 299.093 1184.84 297.889C1183.63 296.685 1182.95 295.052 1182.95 293.349V274.027C1182.95 272.324 1183.63 270.692 1184.84 269.488C1186.04 268.284 1187.67 267.606 1189.37 267.604H1371.82C1373.52 267.606 1375.15 268.284 1376.36 269.488C1377.56 270.692 1378.24 272.324 1378.24 274.027V279.113C1378.23 284.59 1376.06 289.841 1372.18 293.714C1368.31 297.587 1363.06 299.766 1357.58 299.772Z" fill="white"/>
<path d="M1299.56 281.695H1222.75C1222.53 281.695 1222.32 281.653 1222.12 281.569C1221.91 281.486 1221.73 281.364 1221.58 281.21C1221.42 281.056 1221.3 280.874 1221.22 280.673C1221.14 280.472 1221.09 280.256 1221.09 280.039C1221.09 279.821 1221.14 279.606 1221.22 279.405C1221.3 279.204 1221.42 279.021 1221.58 278.868C1221.73 278.714 1221.91 278.592 1222.12 278.509C1222.32 278.425 1222.53 278.382 1222.75 278.382H1299.56C1300 278.382 1300.42 278.557 1300.73 278.868C1301.04 279.178 1301.22 279.6 1301.22 280.039C1301.22 280.478 1301.04 280.9 1300.73 281.21C1300.42 281.521 1300 281.695 1299.56 281.695V281.695Z" fill="#6C63FF"/>
<path d="M1338.44 288.47H1222.75C1222.53 288.47 1222.32 288.428 1222.12 288.344C1221.91 288.261 1221.73 288.139 1221.58 287.985C1221.42 287.831 1221.3 287.649 1221.22 287.448C1221.14 287.247 1221.09 287.031 1221.09 286.814C1221.09 286.596 1221.14 286.381 1221.22 286.18C1221.3 285.979 1221.42 285.796 1221.58 285.643C1221.73 285.489 1221.91 285.367 1222.12 285.284C1222.32 285.2 1222.53 285.157 1222.75 285.157H1338.44C1338.88 285.157 1339.3 285.332 1339.61 285.643C1339.93 285.953 1340.1 286.375 1340.1 286.814C1340.1 287.253 1339.93 287.675 1339.61 287.985C1339.3 288.296 1338.88 288.47 1338.44 288.47V288.47Z" fill="#E6E6E6"/>
<path d="M1376.15 363.491H1185.04C1183.34 363.489 1181.71 362.812 1180.5 361.608C1179.3 360.404 1178.62 358.771 1178.62 357.068V329.078C1178.62 327.375 1179.3 325.743 1180.5 324.539C1181.71 323.335 1183.34 322.657 1185.04 322.655H1376.15C1377.85 322.657 1379.49 323.335 1380.69 324.539C1381.89 325.743 1382.57 327.375 1382.57 329.078V357.068C1382.57 358.771 1381.89 360.404 1380.69 361.608C1379.49 362.812 1377.85 363.489 1376.15 363.491V363.491Z" fill="#E6E6E6"/>
<path d="M1357.58 359.159H1189.37C1187.67 359.157 1186.04 358.48 1184.84 357.275C1183.63 356.071 1182.95 354.439 1182.95 352.736V333.414C1182.95 331.711 1183.63 330.079 1184.84 328.874C1186.04 327.67 1187.67 326.993 1189.37 326.991H1371.82C1373.52 326.993 1375.15 327.67 1376.36 328.874C1377.56 330.079 1378.24 331.711 1378.24 333.414V338.499C1378.23 343.977 1376.06 349.228 1372.18 353.101C1368.31 356.974 1363.06 359.153 1357.58 359.159Z" fill="white"/>
<path d="M1299.56 341.082H1222.75C1222.31 341.082 1221.89 340.908 1221.58 340.597C1221.27 340.286 1221.09 339.865 1221.09 339.426C1221.09 338.986 1221.27 338.565 1221.58 338.254C1221.89 337.944 1222.31 337.769 1222.75 337.769H1299.56C1300 337.769 1300.42 337.944 1300.73 338.254C1301.04 338.565 1301.22 338.986 1301.22 339.426C1301.22 339.865 1301.04 340.286 1300.73 340.597C1300.42 340.908 1300 341.082 1299.56 341.082Z" fill="#6C63FF"/>
<path d="M1338.44 347.857H1222.75C1222.31 347.857 1221.89 347.683 1221.58 347.372C1221.27 347.061 1221.09 346.64 1221.09 346.201C1221.09 345.761 1221.27 345.34 1221.58 345.029C1221.89 344.719 1222.31 344.544 1222.75 344.544H1338.44C1338.88 344.544 1339.3 344.719 1339.61 345.029C1339.93 345.34 1340.1 345.761 1340.1 346.201C1340.1 346.64 1339.93 347.061 1339.61 347.372C1339.3 347.683 1338.88 347.857 1338.44 347.857V347.857Z" fill="#E6E6E6"/>
<path d="M1089.83 163.142C1100.87 163.142 1109.82 154.194 1109.82 143.155C1109.82 132.116 1100.87 123.167 1089.83 123.167C1078.79 123.167 1069.84 132.116 1069.84 143.155C1069.84 154.194 1078.79 163.142 1089.83 163.142Z" fill="#FFB9B9"/>
<path d="M1075.13 156.009C1074.9 156.01 1074.66 155.972 1074.43 155.896C1073.54 155.505 1072.79 154.842 1072.3 154.002C1068.86 149.052 1067.2 142.453 1067.36 134.388C1067.43 130.976 1067.82 126.613 1070.21 123.135C1072.22 120.211 1076.28 117.891 1080.07 119.055C1080.03 118.298 1080.19 117.543 1080.55 116.876C1080.92 116.208 1081.45 115.654 1082.11 115.275C1083.55 114.396 1085.27 114.235 1086.8 114.091C1090.64 113.731 1094.62 113.358 1098.52 114.096C1102.89 114.925 1106.46 117.176 1108.32 120.273L1108.36 120.371L1108.73 122.206C1108.78 122.453 1108.89 122.686 1109.04 122.888C1109.19 123.091 1109.38 123.259 1109.6 123.381C1109.82 123.503 1110.06 123.575 1110.31 123.593C1110.57 123.611 1110.82 123.575 1111.05 123.486C1111.31 123.389 1111.59 123.361 1111.86 123.405C1112.13 123.448 1112.39 123.562 1112.6 123.734C1112.82 123.906 1112.98 124.132 1113.08 124.387C1113.18 124.643 1113.22 124.921 1113.18 125.193L1113.07 125.923L1114.17 125.718C1114.44 125.666 1114.73 125.689 1114.99 125.783C1115.25 125.877 1115.49 126.039 1115.67 126.253C1115.85 126.467 1115.97 126.724 1116.02 127C1116.07 127.275 1116.04 127.559 1115.94 127.821L1115.63 128.66C1115.86 128.662 1116.08 128.71 1116.29 128.801C1116.5 128.893 1116.69 129.026 1116.84 129.193C1117.06 129.432 1117.2 129.736 1117.24 130.06C1117.28 130.384 1117.21 130.712 1117.05 130.995C1115.82 133.095 1114.08 134.848 1111.99 136.089C1110.84 136.776 1109.59 137.268 1108.29 137.543C1099.82 139.372 1091.08 139.635 1082.51 138.319C1083.02 140.008 1083.21 141.776 1083.09 143.536C1082.81 145.737 1081.52 147.553 1079.8 148.162C1079.4 148.29 1079 148.387 1078.59 148.452C1078.2 148.513 1077.82 148.606 1077.45 148.731C1076.89 148.935 1076.4 149.282 1076.02 149.736C1075.64 150.19 1075.39 150.736 1075.29 151.319C1075.19 151.901 1075.25 152.5 1075.45 153.054C1075.66 153.608 1076.01 154.099 1076.46 154.475L1077.31 153.589L1077.04 154.716C1076.98 154.935 1076.88 155.14 1076.73 155.317C1076.59 155.494 1076.41 155.639 1076.21 155.743C1075.88 155.919 1075.51 156.011 1075.13 156.009Z" fill="#2F2E41"/>
<path d="M1353.18 457.813L1353.99 439.629C1362.42 435.123 1371.82 432.743 1381.38 432.695C1368.22 443.451 1369.87 464.185 1360.95 478.649C1358.13 483.139 1354.34 486.938 1349.86 489.763C1345.37 492.589 1340.31 494.37 1335.05 494.973L1324.04 501.714C1322.53 493.292 1322.86 484.643 1325.01 476.362C1327.17 468.082 1331.09 460.366 1336.51 453.748C1339.59 450.065 1343.12 446.785 1347.02 443.984C1349.66 450.937 1353.18 457.813 1353.18 457.813Z" fill="#F2F2F2"/>
</g>
</g>
<defs>
<linearGradient id="paint0_linear_1_2" x1="950.6" y1="484.052" x2="631.046" y2="1081.69" gradientUnits="userSpaceOnUse">
<stop stop-color="#45A7BD"/>
<stop offset="1" stop-color="#C4C4C4"/>
</linearGradient>
<linearGradient id="paint1_linear_1_2" x1="713" y1="-28" x2="397.155" y2="1112.94" gradientUnits="userSpaceOnUse">
<stop stop-color="#CACBDE"/>
<stop offset="1" stop-color="#2F3155" stop-opacity="0"/>
</linearGradient>
<linearGradient id="paint2_linear_1_2" x1="141.029" y1="327.029" x2="38.8235" y2="454.971" gradientUnits="userSpaceOnUse">
<stop stop-color="#A3EDF8"/>
<stop offset="1" stop-color="#7DAEB5" stop-opacity="0"/>
</linearGradient>
<clipPath id="clip0_1_2">
<rect width="1440" height="1024" fill="white"/>
</clipPath>
<clipPath id="clip1_1_2">
<rect width="612" height="503" fill="white" transform="translate(820)"/>
</clipPath>
</defs>
</svg>
